<?xml version="1.0" encoding="utf-8"?><svg xmlns="http://www.w3.org/2000/svg" xmlns:xlink="http://www.w3.org/1999/xlink"><symbol fill="none" viewBox="0 0 1064 540" id="arrow" xmlns="http://www.w3.org/2000/svg"><g opacity=".1" filter="url(#ba)"><path d="M214-244h433.755L1064 235.212 647.755 702H214l386.083-467.608L214-244z" fill="url(#bb)"/></g><defs><radialGradient id="bb" cx="0" cy="0" r="1" gradientUnits="userSpaceOnUse" gradientTransform="matrix(418 0 0 375.581 664.5 222.5)"><stop offset=".594" stop-color="#fff"/><stop offset="1" stop-color="#fff" stop-opacity="0"/></radialGradient><filter id="ba" x="0" y="-336" width="1064" height="1134" filterUnits="userSpaceOnUse" color-interpolation-filters="sRGB"><feFlood flood-opacity="0" result="BackgroundImageFix"/><feColorMatrix in="SourceAlpha" values="0 0 0 0 0 0 0 0 0 0 0 0 0 0 0 0 0 0 127 0" result="hardAlpha"/><feOffset dx="-120" dy="2"/><feGaussianBlur stdDeviation="47"/><feColorMatrix values="0 0 0 0 0 0 0 0 0 0 0 0 0 0 0 0 0 0 0.135134 0"/><feBlend in2="BackgroundImageFix" result="effect1_dropShadow_16_76"/><feBlend in="SourceGraphic" in2="effect1_dropShadow_16_76" result="shape"/></filter></defs></symbol><symbol fill="none" viewBox="0 0 24 24" id="arrow-button" xmlns="http://www.w3.org/2000/svg"><path d="m9 18 6-6-6-6"/></symbol><symbol fill="none" viewBox="0 0 1755 540" id="group" xmlns="http://www.w3.org/2000/svg"><g opacity=".1" filter="url(#ca)"><path d="M165-244h433.755L1015 235.212 598.755 702H165l386.083-467.608L165-244z" fill="url(#cb)"/></g><g opacity=".1" filter="url(#cc)"><path d="M905-244h433.76L1755 235.212 1338.76 702H905l386.08-467.608L905-244z" fill="url(#cd)"/></g><g opacity=".1" filter="url(#ce)"><path d="M535-244h433.755L1385 235.212 968.755 702H535l386.083-467.608L535-244z" fill="url(#cf)"/></g><defs><radialGradient id="cb" cx="0" cy="0" r="1" gradientUnits="userSpaceOnUse" gradientTransform="matrix(418 0 0 375.581 615.5 222.5)"><stop offset=".594" stop-color="#fff"/><stop offset="1" stop-color="#fff" stop-opacity="0"/></radialGradient><radialGradient id="cd" cx="0" cy="0" r="1" gradientUnits="userSpaceOnUse" gradientTransform="matrix(418 0 0 375.581 1355.5 222.5)"><stop offset=".594" stop-color="#fff"/><stop offset="1" stop-color="#fff" stop-opacity="0"/></radialGradient><radialGradient id="cf" cx="0" cy="0" r="1" gradientUnits="userSpaceOnUse" gradientTransform="matrix(418 0 0 375.581 985.5 222.5)"><stop offset=".594" stop-color="#fff"/><stop offset="1" stop-color="#fff" stop-opacity="0"/></radialGradient><filter id="ca" x="-49" y="-336" width="1064" height="1134" filterUnits="userSpaceOnUse" color-interpolation-filters="sRGB"><feFlood flood-opacity="0" result="BackgroundImageFix"/><feColorMatrix in="SourceAlpha" values="0 0 0 0 0 0 0 0 0 0 0 0 0 0 0 0 0 0 127 0" result="hardAlpha"/><feOffset dx="-120" dy="2"/><feGaussianBlur stdDeviation="47"/><feColorMatrix values="0 0 0 0 0 0 0 0 0 0 0 0 0 0 0 0 0 0 0.135134 0"/><feBlend in2="BackgroundImageFix" result="effect1_dropShadow_16_77"/><feBlend in="SourceGraphic" in2="effect1_dropShadow_16_77" result="shape"/></filter><filter id="cc" x="691" y="-336" width="1064" height="1134" filterUnits="userSpaceOnUse" color-interpolation-filters="sRGB"><feFlood flood-opacity="0" result="BackgroundImageFix"/><feColorMatrix in="SourceAlpha" values="0 0 0 0 0 0 0 0 0 0 0 0 0 0 0 0 0 0 127 0" result="hardAlpha"/><feOffset dx="-120" dy="2"/><feGaussianBlur stdDeviation="47"/><feColorMatrix values="0 0 0 0 0 0 0 0 0 0 0 0 0 0 0 0 0 0 0.135134 0"/><feBlend in2="BackgroundImageFix" result="effect1_dropShadow_16_77"/><feBlend in="SourceGraphic" in2="effect1_dropShadow_16_77" result="shape"/></filter><filter id="ce" x="321" y="-336" width="1064" height="1134" filterUnits="userSpaceOnUse" color-interpolation-filters="sRGB"><feFlood flood-opacity="0" result="BackgroundImageFix"/><feColorMatrix in="SourceAlpha" values="0 0 0 0 0 0 0 0 0 0 0 0 0 0 0 0 0 0 127 0" result="hardAlpha"/><feOffset dx="-120" dy="2"/><feGaussianBlur stdDeviation="47"/><feColorMatrix values="0 0 0 0 0 0 0 0 0 0 0 0 0 0 0 0 0 0 0.135134 0"/><feBlend in2="BackgroundImageFix" result="effect1_dropShadow_16_77"/><feBlend in="SourceGraphic" in2="effect1_dropShadow_16_77" result="shape"/></filter></defs></symbol><symbol fill="none" viewBox="0 0 152 32" id="logo" xmlns="http://www.w3.org/2000/svg"><path fill-rule="evenodd" clip-rule="evenodd" d="M8.144 13.867c1.513 0 2.723-.424 3.63-1.272.925-.848 1.388-2.02 1.388-3.516 0-1.497-.463-2.67-1.387-3.517-.908-.848-2.118-1.272-3.63-1.272H4.991v9.577h3.152zM0 .35h8.346c1.933 0 3.648.358 5.144 1.073 1.495.715 2.655 1.729 3.48 3.043.823 1.313 1.235 2.851 1.235 4.614 0 1.762-.412 3.3-1.236 4.614-.824 1.314-1.984 2.328-3.48 3.043-1.495.715-3.21 1.072-5.143 1.072H0V.35zm21.84 17.458h4.992V.35H21.84v17.46zm21.853-7.221h3.937v7.22c-1.227 0-3.11-.01-4.412 0-1.453.013-1.688 0-3 0-1.848 0-3.514-.032-4.993-.797-1.48-.782-2.64-1.863-3.48-3.243-.84-1.38-1.26-2.943-1.26-4.688 0-1.746.42-3.31 1.26-4.69.84-1.38 2.01-2.452 3.505-3.217C36.746.391 38.436 0 40.318 0c1.647 0 3.127.274 4.438.823 1.311.549 2.403 1.339 3.278 2.37l-3.177 2.843C43.663 4.739 42.234 4.09 40.57 4.09c-1.512 0-2.731.458-3.656 1.372-.925.898-1.386 2.103-1.386 3.617 0 .964.21 1.829.63 2.593a4.608 4.608 0 0 0 1.765 1.771c.756.416 1.622.624 2.597.624h3.173v-3.48zm8.111 7.221h4.992V.35h-4.992v17.46zm25.488 0-.05-9.253-4.539 7.532h-2.218L65.97 8.804v9.004h-4.614V.35h4.11l6.202 10.077L77.721.349h4.11l.05 17.46h-4.589zm19.493-7.033-2.269-5.587-2.27 5.587h4.54zm1.463 3.641h-7.464l-1.386 3.392h-5.094L92.095.35h4.917l7.817 17.46h-5.194l-1.387-3.393zm11.875-10.151h-5.421V.35h15.809v3.916h-5.395v13.543h-4.993V4.265zm14.208 13.543h4.993V.35h-4.993v17.46zm21.174 0-3.656-5.412-3.606 5.412h-5.698l6.429-8.829-6.152-8.63h5.622l3.531 5.038L145.454.35h5.396l-6.152 8.43 6.556 9.03h-5.749zM99.128 29.054l-.507-1.397-.2-.626h-.02l-.186.613-.52 1.41h1.433zm.213.573H97.49l-.42 1.14h-.732l1.659-4.348h.852l1.659 4.348h-.753l-.413-1.14zm11.181-1.107v2.247h-.526l-.02-.553a1.299 1.299 0 0 1-.533.46 1.91 1.91 0 0 1-.813.159 2.08 2.08 0 0 1-1.072-.27 1.824 1.824 0 0 1-.712-.771c-.169-.338-.254-.738-.254-1.199 0-.457.087-.852.26-1.186a1.83 1.83 0 0 1 .733-.777 2.14 2.14 0 0 1 1.099-.277c.453 0 .826.083 1.119.25.293.167.524.426.693.777l-.653.31a1.014 1.014 0 0 0-.426-.54c-.2-.123-.44-.184-.72-.184-.417 0-.748.142-.992.428-.245.285-.367.685-.367 1.199 0 .522.116.927.347 1.212.235.281.577.422 1.025.422.351 0 .635-.086.853-.257.218-.171.326-.42.326-.745V29.1h-1.345v-.58h1.978zm10.123 1.64v.607h-3.277v-4.348h3.183v.606h-2.471v1.252h1.932v.593h-1.932v1.29h2.565zm10.269.607h-.846l-1.699-2.74-.426-.804h-.007l.027.737v2.807h-.653v-4.348h.84l1.691 2.734.433.81h.007l-.027-.738V26.42h.66v4.348zm10.653-1.153a1.691 1.691 0 0 1-.686.903c-.32.21-.697.316-1.132.316-.422 0-.789-.09-1.099-.27a1.808 1.808 0 0 1-.72-.777c-.169-.338-.253-.736-.253-1.193 0-.457.084-.854.253-1.192a1.81 1.81 0 0 1 .72-.778c.31-.18.674-.27 1.092-.27.44 0 .808.09 1.106.27.301.18.519.446.652.797l-.672.297c-.089-.26-.218-.448-.387-.567-.168-.123-.388-.184-.659-.184-.413 0-.744.145-.993.435-.244.285-.366.683-.366 1.192 0 .514.118.914.353 1.2.236.285.562.427.979.427.284 0 .522-.07.713-.21a1.16 1.16 0 0 0 .42-.62l.679.224zm8.245-.514v1.667h-.712V29.1l-1.566-2.681h.793l.786 1.396.346.653.347-.652.779-1.397h.799l-1.572 2.681zM28.193 30.168c.462 0 .817-.137 1.066-.409.248-.277.373-.665.373-1.166 0-.5-.125-.887-.373-1.16-.249-.276-.604-.415-1.066-.415h-.839v3.15h.84zm0-3.747c.693 0 1.23.189 1.612.567.382.377.573.913.573 1.607s-.191 1.23-.573 1.608c-.382.377-.92.566-1.612.566h-1.552V26.42h1.552zm8.951 4.346h.712v-4.348h-.712v4.348zm11.408-2.247v2.247h-.526l-.02-.553a1.294 1.294 0 0 1-.532.46 1.912 1.912 0 0 1-.813.159c-.409 0-.766-.09-1.072-.27a1.828 1.828 0 0 1-.713-.771c-.169-.338-.253-.738-.253-1.199 0-.457.086-.852.26-1.186.173-.338.417-.598.732-.777a2.14 2.14 0 0 1 1.099-.277c.453 0 .826.083 1.12.25.292.167.523.426.692.777l-.653.31a1.01 1.01 0 0 0-.426-.54c-.2-.123-.44-.184-.72-.184-.417 0-.748.142-.992.428-.244.285-.367.685-.367 1.199 0 .522.116.927.347 1.212.235.281.577.422 1.026.422.35 0 .635-.086.852-.257.218-.171.327-.42.327-.745V29.1h-1.346v-.58h1.978zm6.846 2.247h.712v-4.348h-.712v4.348zm10.995-3.742h-1.505v3.742h-.713v-3.742H62.67v-.606h3.723v.606zm8.235 2.029-.506-1.397-.2-.626h-.02l-.186.613-.52 1.41h1.432zm.213.573H72.99l-.42 1.14h-.733l1.659-4.348h.852l1.659 4.348h-.753l-.413-1.14zm10.791.533v.607h-3.137v-4.348h.713v3.742h2.424z" fill="#F2F2F2"/><path fill-rule="evenodd" clip-rule="evenodd" d="M0 24.941h3.007l3.178 3.576L3.007 32H0l2.947-3.49L0 24.942z" fill="#5101A6"/><path fill-rule="evenodd" clip-rule="evenodd" d="M5.947 24.94h3.007l3.177 3.577L8.954 32H5.947l2.947-3.49-2.947-3.57zm6.184 0h3.007l3.178 3.577L15.138 32h-3.007l2.948-3.49-2.948-3.57z" fill="#5101A6"/></symbol><symbol fill="none" viewBox="0 0 24 24" id="play" xmlns="http://www.w3.org/2000/svg"><path d="M12 22c5.523 0 10-4.477 10-10S17.523 2 12 2 2 6.477 2 12s4.477 10 10 10z"/><path d="m10 8 6 4-6 4V8z"/></symbol></svg>